<?xml version="1.0" encoding="utf-8"?>
<!-- Generator: Adobe Illustrator 24.3.0, SVG Export Plug-In . SVG Version: 6.00 Build 0)  -->
<svg version="1.1" xmlns="http://www.w3.org/2000/svg" xmlns:xlink="http://www.w3.org/1999/xlink" x="0px" y="0px"
	 viewBox="0 0 25 25" style="enable-background:new 0 0 25 25;" xml:space="preserve">
<style type="text/css">
	.st0{display:none;}
	.st1{display:inline;fill:#393838;}
	.st2{fill:#FFFFFF;}
	.st3{fill:#006837;}
	.st4{fill:#FFFFFF;stroke:#393838;stroke-width:0.0519;stroke-miterlimit:10;}
	.st5{fill:#FFFFFF;stroke:#393838;stroke-width:0.2282;stroke-miterlimit:10;}
	.st6{fill:#FFFFFF;stroke:#393838;stroke-width:0.8088;stroke-miterlimit:10;}
	.st7{fill:#FFFFFF;stroke:#393838;stroke-width:0.364;stroke-miterlimit:10;}
	.st8{fill:#E85656;stroke:#393838;stroke-width:0.2485;stroke-miterlimit:10;}
	.st9{fill:#E85656;}
	.st10{fill:#E85656;stroke:#393838;stroke-width:0.2282;stroke-miterlimit:10;}
	.st11{fill:#393838;}
	.st12{fill:#FFFFFF;stroke:#393838;stroke-width:0.2485;stroke-miterlimit:10;}
	.st13{fill:#191919;}
	.st14{fill:none;stroke:#E85656;stroke-width:0.5;stroke-miterlimit:10;}
</style>
<g id="Layer_1" class="st0">
	<rect x="-169.88" y="-58.48" class="st1" width="270.4" height="215.61"/>
</g>
<g id="Layer_2">
	<g>
		<path class="st2" d="M10.05,13.5c0.01-0.07,0.02-0.15,0.02-0.22c0-1.3,0-2.6,0-3.9c0-0.48,0.31-0.78,0.77-0.75
			c0.37,0.02,0.64,0.35,0.64,0.79c0,0.94,0,1.88,0,2.83c0,0.05-0.01,0.1,0.01,0.15c0.01,0.03,0.05,0.06,0.08,0.09
			c0.03-0.03,0.07-0.06,0.08-0.09c0.01-0.05,0.01-0.11,0.01-0.17c0-1.19,0-2.38,0-3.57c0-0.29,0.11-0.52,0.37-0.66
			c0.25-0.14,0.5-0.1,0.74,0.04c0.19,0.12,0.28,0.31,0.29,0.53c0.01,0.64,0.01,1.27,0.01,1.91c0,0.6,0,1.21,0,1.81
			c0,0.09-0.03,0.21,0.16,0.18c0-0.07,0-0.15,0-0.22c0-0.97,0-1.94,0-2.9c0-0.43,0.29-0.74,0.68-0.74c0.42,0,0.72,0.3,0.72,0.74
			c0,0.94,0,1.88,0,2.83c0,0.04-0.01,0.09,0,0.13c0.02,0.06,0.05,0.11,0.08,0.17c0.03-0.06,0.09-0.12,0.09-0.17
			c0.01-0.44-0.01-0.88,0.01-1.32c0.01-0.17,0.05-0.36,0.14-0.5c0.16-0.26,0.49-0.35,0.78-0.25c0.29,0.1,0.47,0.33,0.47,0.65
			c0,0.96,0.02,1.92-0.01,2.88c-0.01,0.34-0.1,0.68-0.17,1.01c-0.12,0.53-0.25,1.05-0.38,1.58c-0.11,0.46-0.41,0.7-0.89,0.7
			c-1.14,0-2.28,0-3.42,0c-0.33,0-0.58-0.12-0.78-0.39c-0.73-1.01-1.46-2.01-2.19-3.01c-0.26-0.35-0.2-0.79,0.12-1.02
			c0.35-0.25,0.76-0.17,1.03,0.2c0.16,0.22,0.33,0.45,0.49,0.67C10.02,13.51,10.04,13.5,10.05,13.5z"/>
	</g>
</g>
</svg>
