<?xml version="1.0" encoding="utf-8"?>
<!-- Generator: Adobe Illustrator 24.3.0, SVG Export Plug-In . SVG Version: 6.00 Build 0)  -->
<svg version="1.1" xmlns="http://www.w3.org/2000/svg" xmlns:xlink="http://www.w3.org/1999/xlink" x="0px" y="0px"
	 viewBox="0 0 25 25" style="enable-background:new 0 0 25 25;" xml:space="preserve">
<style type="text/css">
	.st0{display:none;}
	.st1{display:inline;fill:#393838;}
	.st2{fill:#FFFFFF;}
	.st3{fill:#006837;}
	.st4{fill:#FFFFFF;stroke:#393838;stroke-width:0.0519;stroke-miterlimit:10;}
	.st5{fill:#FFFFFF;stroke:#393838;stroke-width:0.2282;stroke-miterlimit:10;}
	.st6{fill:#FFFFFF;stroke:#393838;stroke-width:0.8088;stroke-miterlimit:10;}
	.st7{fill:#FFFFFF;stroke:#393838;stroke-width:0.364;stroke-miterlimit:10;}
	.st8{fill:#E85656;stroke:#393838;stroke-width:0.2485;stroke-miterlimit:10;}
	.st9{fill:#E85656;}
	.st10{fill:#E85656;stroke:#393838;stroke-width:0.2282;stroke-miterlimit:10;}
	.st11{fill:#393838;}
	.st12{fill:#FFFFFF;stroke:#393838;stroke-width:0.2485;stroke-miterlimit:10;}
	.st13{fill:#191919;}
	.st14{fill:none;stroke:#E85656;stroke-width:0.5;stroke-miterlimit:10;}
</style>
<g id="Layer_1" class="st0">
	<rect x="-80.05" y="-3.93" class="st1" width="270.4" height="215.61"/>
</g>
<g id="Layer_2">
	<g>
		<path class="st12" d="M12.04,16.48c0.02-0.03,0.03-0.03,0.03-0.04c0-0.16,0.05-0.34-0.01-0.46c-0.05-0.09-0.25-0.12-0.38-0.16
			c-1.24-0.37-2.16-1.59-2.18-2.91c0-0.25,0-0.5,0-0.74c0-0.21,0.11-0.31,0.31-0.31c0.06,0,0.12,0,0.18,0
			c0.24,0,0.32,0.09,0.33,0.33c0.01,0.36,0,0.71,0.04,1.07c0.09,0.8,0.83,1.71,1.85,1.85c1.24,0.17,2.48-0.85,2.46-2.17
			c0-0.26,0-0.52,0-0.78c0-0.2,0.1-0.29,0.3-0.3c0.01,0,0.01,0,0.02,0c0.45-0.01,0.5,0.04,0.5,0.49c0,0.53,0.03,1.07-0.17,1.58
			c-0.4,1.06-1.15,1.72-2.26,1.95c-0.15,0.03-0.17,0.09-0.17,0.22c0,0.38,0,0.38,0.38,0.38c0.17,0,0.34,0,0.51,0
			c0.24,0,0.34,0.1,0.35,0.34c0,0.07,0,0.15,0,0.22c-0.01,0.16-0.1,0.26-0.26,0.26c-0.91,0-1.81,0-2.72,0
			c-0.17,0-0.26-0.09-0.28-0.25c-0.01-0.08-0.01-0.16-0.01-0.24c0.01-0.23,0.11-0.33,0.34-0.33C11.48,16.47,11.77,16.48,12.04,16.48
			z"/>
		<path class="st12" d="M14.13,11.59c0,0.47,0,0.93,0,1.4c-0.01,0.8-0.61,1.46-1.44,1.58c-0.77,0.11-1.55-0.4-1.76-1.15
			c-0.04-0.16-0.07-0.33-0.07-0.5c-0.01-0.89-0.01-1.78,0-2.67c0.01-0.76,0.47-1.38,1.16-1.6c1.04-0.32,2.11,0.47,2.11,1.56
			C14.13,10.67,14.13,11.13,14.13,11.59z M13.31,11.59c0-0.45,0-0.91,0-1.36c0-0.45-0.33-0.8-0.77-0.81
			c-0.47-0.01-0.84,0.31-0.85,0.77c-0.01,0.93-0.01,1.86,0,2.79c0.4,0.27,0.58,0.25,0.83,0.79c0.45-0.01,0.8-0.37,0.8-0.83
			C13.31,12.48,13.31,12.04,13.31,11.59z"/>
	</g>
	<g>
		<path class="st2" d="M16.39,16.49c-0.18,0-0.31-0.11-0.38-0.18L7.75,9.59C7.43,9.33,7.4,9.05,7.65,8.73l0.08-0.1
			c0.07-0.08,0.21-0.25,0.43-0.25c0.16,0,0.28,0.08,0.39,0.17l8.11,6.61c0.12,0.09,0.18,0.14,0.23,0.2
			c0.05,0.05,0.09,0.11,0.12,0.17l0.11,0.19l-0.09,0.25l-0.09,0.12c-0.08,0.11-0.16,0.22-0.28,0.31l-0.09,0.07L16.39,16.49z"/>
		<path class="st11" d="M8.15,8.69c0.05,0,0.11,0.03,0.19,0.1c1.12,0.91,2.24,1.82,3.36,2.74c1.58,1.29,3.17,2.58,4.75,3.87
			c0.07,0.06,0.15,0.11,0.21,0.17c0.04,0.04,0.07,0.11,0.13,0.19c-0.11,0.13-0.2,0.28-0.32,0.38c-0.03,0.02-0.06,0.03-0.08,0.03
			c-0.08,0-0.15-0.08-0.22-0.13c-1.52-1.24-3.04-2.48-4.57-3.72c-1.22-1-2.44-1.99-3.66-2.99C7.76,9.2,7.75,9.11,7.89,8.92
			c0.02-0.03,0.04-0.06,0.07-0.08C8.04,8.74,8.09,8.69,8.15,8.69 M8.15,8.07L8.15,8.07c-0.37,0-0.59,0.26-0.67,0.36
			C7.45,8.47,7.42,8.51,7.4,8.55C7.05,9,7.11,9.47,7.55,9.83l3.66,2.99l4.57,3.72c0.12,0.1,0.31,0.27,0.61,0.27
			c0.17,0,0.34-0.06,0.48-0.17c0.14-0.12,0.25-0.25,0.33-0.36c0.03-0.03,0.05-0.07,0.08-0.1l0.29-0.35l-0.25-0.38l-0.04-0.06
			c-0.04-0.06-0.09-0.14-0.17-0.23c-0.06-0.07-0.14-0.12-0.21-0.18l-0.05-0.04l-2.14-1.75l-2.61-2.13L11,10.16L8.74,8.31
			C8.6,8.2,8.41,8.07,8.15,8.07L8.15,8.07z"/>
	</g>
</g>
</svg>
