<?xml version="1.0" encoding="utf-8"?>
<!-- Generator: Adobe Illustrator 24.3.0, SVG Export Plug-In . SVG Version: 6.00 Build 0)  -->
<svg version="1.1" xmlns="http://www.w3.org/2000/svg" xmlns:xlink="http://www.w3.org/1999/xlink" x="0px" y="0px"
	 viewBox="0 0 25 25" style="enable-background:new 0 0 25 25;" xml:space="preserve">
<style type="text/css">
	.st0{display:none;}
	.st1{display:inline;fill:#393838;}
	.st2{fill:#FFFFFF;}
	.st3{fill:#006837;}
	.st4{fill:#FFFFFF;stroke:#393838;stroke-width:0.0519;stroke-miterlimit:10;}
	.st5{fill:#FFFFFF;stroke:#393838;stroke-width:0.2282;stroke-miterlimit:10;}
	.st6{fill:#FFFFFF;stroke:#393838;stroke-width:0.8088;stroke-miterlimit:10;}
	.st7{fill:#FFFFFF;stroke:#393838;stroke-width:0.364;stroke-miterlimit:10;}
	.st8{fill:#E85656;stroke:#393838;stroke-width:0.2485;stroke-miterlimit:10;}
	.st9{fill:#E85656;}
	.st10{fill:#E85656;stroke:#393838;stroke-width:0.2282;stroke-miterlimit:10;}
	.st11{fill:#393838;}
	.st12{fill:#FFFFFF;stroke:#393838;stroke-width:0.2485;stroke-miterlimit:10;}
	.st13{fill:#191919;}
	.st14{fill:#FFFFFF;stroke:#393838;stroke-width:0.513;stroke-miterlimit:10;}
	.st15{fill:none;stroke:#E85656;stroke-width:0.5;stroke-miterlimit:10;}
	.st16{fill:#899EBB;}
	.st17{fill:#333333;}
</style>
<g id="Layer_1" class="st0">
	<rect x="-80.14" y="21.55" class="st1" width="270.4" height="215.61"/>
</g>
<g id="Layer_2">
	<g>
		<path class="st14" d="M11.93,20.24c0.05-0.05,0.06-0.06,0.06-0.07c0-0.32,0.11-0.7-0.02-0.95c-0.11-0.2-0.51-0.24-0.79-0.33
			c-2.56-0.77-4.45-3.29-4.5-6c-0.01-0.51-0.01-1.02,0-1.53c0.01-0.43,0.22-0.64,0.64-0.65c0.12,0,0.25,0,0.37,0
			c0.49,0.01,0.66,0.19,0.68,0.69c0.02,0.73,0,1.47,0.09,2.2c0.19,1.64,1.72,3.53,3.82,3.82c2.57,0.35,5.13-1.75,5.08-4.48
			c-0.01-0.54-0.01-1.07,0-1.61c0.01-0.42,0.2-0.61,0.62-0.62c0.01,0,0.02,0,0.04,0c0.93-0.02,1.04,0.09,1.04,1.01
			c-0.01,1.1,0.06,2.2-0.34,3.25c-0.83,2.18-2.38,3.55-4.67,4.03c-0.3,0.06-0.35,0.19-0.35,0.45c0,0.79,0,0.79,0.78,0.79
			c0.35,0,0.7,0,1.05,0c0.5,0.01,0.71,0.21,0.71,0.7c0,0.15,0.01,0.3,0,0.45c-0.02,0.34-0.21,0.54-0.55,0.54
			c-1.87,0.01-3.74,0-5.61,0c-0.34,0-0.53-0.18-0.58-0.51c-0.02-0.16-0.02-0.32-0.01-0.49c0.02-0.48,0.22-0.68,0.7-0.69
			C10.78,20.24,11.36,20.24,11.93,20.24z"/>
		<path class="st14" d="M16.25,10.17c0,0.96,0.01,1.92,0,2.88c-0.01,1.66-1.26,3.02-2.98,3.26c-1.58,0.22-3.2-0.83-3.63-2.37
			C9.56,13.6,9.5,13.25,9.5,12.9c-0.01-1.83-0.02-3.67,0-5.5c0.01-1.57,0.96-2.86,2.4-3.29c2.16-0.66,4.35,0.96,4.35,3.22
			C16.25,8.27,16.25,9.22,16.25,10.17z M14.56,10.16c0-0.93,0-1.87,0-2.8c0-0.94-0.69-1.65-1.59-1.68
			c-0.98-0.03-1.74,0.63-1.75,1.59c-0.03,1.92-0.03,3.84,0,5.76c0.01,0.95,0.79,1.65,1.71,1.62c0.94-0.03,1.64-0.76,1.64-1.72
			C14.56,12,14.56,11.08,14.56,10.16z"/>
	</g>
	<g>
		<path class="st2" d="M21.33,20.4c-0.23,0-0.4-0.15-0.55-0.27L3.73,6.23c-0.49-0.4-0.53-0.73-0.14-1.24
			c0.05-0.06,0.09-0.12,0.14-0.18c0.16-0.19,0.34-0.38,0.6-0.38c0.19,0,0.36,0.1,0.55,0.26l16.87,13.75
			c0.11,0.09,0.23,0.18,0.33,0.28c0.08,0.08,0.14,0.17,0.2,0.28l0.2,0.31l-0.12,0.15c-0.07,0.08-0.13,0.17-0.19,0.25
			c-0.15,0.2-0.31,0.41-0.51,0.57C21.56,20.35,21.45,20.4,21.33,20.4z"/>
		<path class="st11" d="M4.34,4.68c0.11,0,0.23,0.07,0.39,0.2c2.31,1.88,4.62,3.77,6.93,5.65c3.27,2.67,6.54,5.33,9.81,8
			c0.15,0.12,0.3,0.23,0.43,0.36c0.09,0.09,0.15,0.22,0.26,0.39c-0.23,0.28-0.41,0.58-0.67,0.79c-0.06,0.05-0.12,0.07-0.17,0.07
			c-0.16,0-0.31-0.16-0.45-0.27c-3.14-2.56-6.28-5.12-9.43-7.68c-2.52-2.05-5.04-4.11-7.56-6.16c-0.38-0.31-0.4-0.49-0.1-0.88
			c0.04-0.06,0.09-0.12,0.14-0.17C4.09,4.78,4.21,4.68,4.34,4.68 M4.34,4.16L4.34,4.16c-0.4,0-0.66,0.31-0.8,0.48
			C3.48,4.7,3.43,4.77,3.38,4.83C2.92,5.45,2.97,5.94,3.57,6.43c2.52,2.06,5.04,4.11,7.56,6.16l9.43,7.68l0.06,0.05
			c0.16,0.13,0.39,0.33,0.71,0.33c0.18,0,0.35-0.06,0.5-0.18c0.23-0.18,0.39-0.41,0.55-0.62c0.06-0.08,0.12-0.16,0.19-0.24
			l0.24-0.29L22.6,19c-0.03-0.05-0.06-0.1-0.09-0.14c-0.07-0.11-0.13-0.22-0.24-0.33c-0.11-0.11-0.23-0.21-0.36-0.31l-0.12-0.09
			l-4.48-3.65l-5.33-4.35L9.72,8.29L5.05,4.48C4.85,4.32,4.62,4.16,4.34,4.16L4.34,4.16z"/>
	</g>
</g>
</svg>
