<?xml version="1.0" encoding="utf-8"?>
<!-- Generator: Adobe Illustrator 24.3.0, SVG Export Plug-In . SVG Version: 6.00 Build 0)  -->
<svg version="1.1" xmlns="http://www.w3.org/2000/svg" xmlns:xlink="http://www.w3.org/1999/xlink" x="0px" y="0px"
	 viewBox="0 0 25 25" style="enable-background:new 0 0 25 25;" xml:space="preserve">
<style type="text/css">
	.st0{display:none;}
	.st1{display:inline;fill:#393838;}
	.st2{fill:#FFFFFF;}
	.st3{fill:#006837;}
	.st4{fill:#FFFFFF;stroke:#393838;stroke-width:0.0519;stroke-miterlimit:10;}
	.st5{fill:#FFFFFF;stroke:#393838;stroke-width:0.2282;stroke-miterlimit:10;}
	.st6{fill:#FFFFFF;stroke:#393838;stroke-width:0.8088;stroke-miterlimit:10;}
	.st7{fill:#FFFFFF;stroke:#393838;stroke-width:0.364;stroke-miterlimit:10;}
	.st8{fill:#E85656;stroke:#393838;stroke-width:0.2485;stroke-miterlimit:10;}
	.st9{fill:#E85656;}
	.st10{fill:#E85656;stroke:#393838;stroke-width:0.2282;stroke-miterlimit:10;}
	.st11{fill:#393838;}
	.st12{fill:#FFFFFF;stroke:#393838;stroke-width:0.2485;stroke-miterlimit:10;}
	.st13{fill:#191919;}
	.st14{fill:none;stroke:#E85656;stroke-width:0.5;stroke-miterlimit:10;}
</style>
<g id="Layer_1" class="st0">
	<rect x="-215.05" y="-74.65" class="st1" width="270.4" height="215.61"/>
</g>
<g id="Layer_2">
	<g>
		<path class="st4" d="M12.49,16.63c-0.91,0-1.83,0.01-2.74,0c-0.41,0-0.79-0.32-0.83-0.73c-0.05-0.53-0.08-1.06,0.06-1.59
			c0.23-0.86,0.91-1.44,1.79-1.48c0.38-0.02,0.76,0.07,1.14,0.13c0.46,0.08,0.91,0.08,1.36-0.05c0.56-0.16,1.12-0.18,1.66,0.08
			c0.74,0.36,1.11,0.99,1.17,1.8c0.02,0.31,0.01,0.63,0,0.94c-0.01,0.48-0.39,0.88-0.87,0.88C14.31,16.64,13.4,16.63,12.49,16.63z
			 M12.49,16.03c0.88,0,1.76,0,2.64,0c0.27,0,0.37-0.1,0.37-0.37c0-0.23,0-0.47,0-0.7c0-1.09-0.83-1.74-1.9-1.49
			c-0.51,0.12-1.03,0.23-1.56,0.13c-0.23-0.04-0.45-0.1-0.68-0.15c-1.02-0.23-1.85,0.43-1.85,1.47c0,0.24,0,0.48,0,0.72
			c0,0.32,0.07,0.39,0.4,0.39C10.77,16.03,11.63,16.03,12.49,16.03z"/>
		<path class="st4" d="M12.49,12.43c-1.16,0-2.09-0.94-2.09-2.1c0-1.15,0.95-2.1,2.1-2.09c1.15,0,2.11,0.95,2.11,2.1
			C14.6,11.49,13.65,12.43,12.49,12.43z M13.99,10.33c0-0.84-0.65-1.49-1.49-1.49c-0.84,0-1.5,0.67-1.5,1.52
			c0,0.83,0.76,1.51,1.54,1.48C13.34,11.81,13.99,11.16,13.99,10.33z"/>
		<path class="st4" d="M8.29,11.83c-0.82,0-1.5-0.68-1.5-1.5c0-0.81,0.68-1.5,1.51-1.5c0.82,0,1.52,0.7,1.51,1.52
			C9.79,11.17,9.12,11.83,8.29,11.83z M9.19,10.35c0.01-0.51-0.36-0.9-0.86-0.9C7.8,9.44,7.4,9.82,7.4,10.32
			c0,0.5,0.39,0.91,0.89,0.91C8.79,11.24,9.18,10.86,9.19,10.35z"/>
		<path class="st4" d="M16.7,11.83c-0.83,0-1.5-0.66-1.5-1.49c0-0.83,0.68-1.52,1.51-1.51c0.82,0.01,1.5,0.69,1.5,1.51
			C18.19,11.17,17.53,11.83,16.7,11.83z M17.59,10.34c0-0.52-0.37-0.89-0.89-0.89c-0.51,0-0.9,0.38-0.9,0.89c0,0.5,0.4,0.9,0.89,0.9
			C17.2,11.23,17.59,10.85,17.59,10.34z"/>
		<path class="st4" d="M15.54,12.64c0.24-0.08,0.43-0.18,0.62-0.19c0.39-0.02,0.79-0.04,1.17,0.02c0.65,0.1,1.17,0.75,1.17,1.41
			c0,0.21-0.1,0.34-0.28,0.35c-0.18,0.02-0.29-0.09-0.33-0.3c-0.03-0.14-0.04-0.3-0.1-0.42c-0.15-0.3-0.39-0.48-0.75-0.47
			c-0.32,0.01-0.64,0.02-0.96,0.02c-0.05,0-0.1-0.02-0.14-0.05C15.82,12.91,15.71,12.8,15.54,12.64z"/>
		<path class="st4" d="M9.44,12.66c-0.17,0.15-0.28,0.26-0.4,0.36C9,13.05,8.95,13.07,8.9,13.07c-0.31,0-0.61,0-0.92-0.03
			c-0.5-0.04-0.85,0.4-0.89,0.82c-0.01,0.11-0.06,0.26-0.15,0.32c-0.19,0.14-0.44-0.01-0.45-0.25c-0.04-0.74,0.58-1.45,1.32-1.49
			c0.38-0.02,0.77,0.01,1.15,0.04C9.12,12.49,9.26,12.59,9.44,12.66z"/>
	</g>
</g>
</svg>
