<?xml version="1.0" encoding="utf-8"?>
<!-- Generator: Adobe Illustrator 24.3.0, SVG Export Plug-In . SVG Version: 6.00 Build 0)  -->
<svg version="1.1" xmlns="http://www.w3.org/2000/svg" xmlns:xlink="http://www.w3.org/1999/xlink" x="0px" y="0px"
	 viewBox="0 0 25 25" style="enable-background:new 0 0 25 25;" xml:space="preserve">
<style type="text/css">
	.st0{display:none;}
	.st1{display:inline;fill:#393838;}
	.st2{fill:#006837;}
	.st3{fill:#FFFFFF;stroke:#393838;stroke-width:0.0585;stroke-miterlimit:10;}
	.st4{fill:#FFFFFF;}
	.st5{fill:#FFFFFF;stroke:#393838;stroke-width:0.1293;stroke-miterlimit:10;}
	.st6{fill:#FFFFFF;stroke:#393838;stroke-width:0.5579;stroke-miterlimit:10;}
	.st7{fill:#FFFFFF;stroke:#393838;stroke-width:0.6536;stroke-miterlimit:10;}
	.st8{fill:#FFFFFF;stroke:#393838;stroke-width:0.8088;stroke-miterlimit:10;}
	.st9{fill:#FFFFFF;stroke:#393838;stroke-width:0.5;stroke-miterlimit:10;}
	.st10{fill:#FFFFFF;stroke:#393838;stroke-width:0.4911;stroke-miterlimit:10;}
	.st11{fill:#393838;}
</style>
<g id="Layer_1" class="st0">
	<rect x="-35.05" y="-74.65" class="st1" width="270.4" height="215.61"/>
</g>
<g id="Layer_2">
	<g>
		<g>
			<path class="st4" d="M13.98,13.25c-0.74-0.21-1.46-0.27-2.2-0.15c-0.22,0.03-0.43,0.08-0.64,0.14c-0.04,0.01-0.1,0.1-0.1,0.14
				c0.02,0.23,0.05,0.46,0.08,0.69c0.04,0.37-0.13,0.71-0.48,0.86c-0.58,0.25-1.16,0.48-1.75,0.71c-0.34,0.13-0.69,0-0.88-0.31
				c-0.28-0.45-0.57-0.89-0.85-1.34c-0.23-0.37-0.2-0.69,0.11-1c1.38-1.38,3.05-2.1,4.99-2.19c1.71-0.08,3.25,0.42,4.64,1.4
				c0.32,0.23,0.61,0.51,0.9,0.78c0.23,0.22,0.26,0.59,0.1,0.86c-0.29,0.49-0.59,0.98-0.89,1.46c-0.18,0.29-0.56,0.41-0.88,0.29
				c-0.56-0.21-1.12-0.43-1.68-0.65c-0.41-0.16-0.59-0.45-0.55-0.89C13.92,13.79,13.95,13.53,13.98,13.25z"/>
		</g>
	</g>
</g>
</svg>
