<?xml version="1.0" encoding="utf-8"?>
<!-- Generator: Adobe Illustrator 24.3.0, SVG Export Plug-In . SVG Version: 6.00 Build 0)  -->
<svg version="1.1" xmlns="http://www.w3.org/2000/svg" xmlns:xlink="http://www.w3.org/1999/xlink" x="0px" y="0px"
	 viewBox="0 0 25 25" style="enable-background:new 0 0 25 25;" xml:space="preserve">
<style type="text/css">
	.st0{display:none;}
	.st1{display:inline;fill:#393838;}
	.st2{fill:#FFFFFF;}
	.st3{fill:#006837;}
	.st4{fill:#FFFFFF;stroke:#393838;stroke-width:0.0519;stroke-miterlimit:10;}
	.st5{fill:#FFFFFF;stroke:#393838;stroke-width:0.2282;stroke-miterlimit:10;}
	.st6{fill:#FFFFFF;stroke:#393838;stroke-width:0.8088;stroke-miterlimit:10;}
	.st7{fill:#FFFFFF;stroke:#393838;stroke-width:0.364;stroke-miterlimit:10;}
	.st8{fill:#E85656;stroke:#393838;stroke-width:0.2485;stroke-miterlimit:10;}
	.st9{fill:#E85656;}
	.st10{fill:#E85656;stroke:#393838;stroke-width:0.2282;stroke-miterlimit:10;}
	.st11{fill:#393838;}
	.st12{fill:#FFFFFF;stroke:#393838;stroke-width:0.2485;stroke-miterlimit:10;}
	.st13{fill:#191919;}
	.st14{fill:none;stroke:#E85656;stroke-width:0.5;stroke-miterlimit:10;}
</style>
<g id="Layer_1" class="st0">
	<rect x="-150.11" y="0.19" class="st1" width="270.4" height="215.61"/>
</g>
<g id="Layer_2">
	<g>
		<path class="st10" d="M14.51,12.38c0.29-0.18,0.55-0.34,0.81-0.5c0.3-0.18,0.6-0.37,0.89-0.55c0.17-0.11,0.35-0.12,0.54-0.03
			c0.18,0.1,0.25,0.26,0.25,0.45c0,1.32,0,2.64,0,3.96c0,0.2-0.08,0.35-0.26,0.45c-0.18,0.1-0.35,0.08-0.52-0.03
			c-0.49-0.31-0.99-0.61-1.49-0.92c-0.06-0.04-0.13-0.08-0.23-0.13c0,0.18,0,0.33,0,0.47c0,0.16,0,0.31-0.01,0.47
			c-0.05,0.43-0.37,0.7-0.8,0.7c-1.14,0-2.28,0-3.41,0c-0.48,0-0.97-0.01-1.45,0c-0.4,0.01-0.84-0.3-0.83-0.82
			c0.02-1.45,0.02-2.9,0-4.35c-0.01-0.46,0.32-0.82,0.8-0.84c0.12,0,0.23,0,0.35,0c1.49,0,2.98-0.01,4.46,0.01
			c0.19,0,0.4,0.06,0.57,0.15c0.26,0.14,0.34,0.41,0.34,0.7C14.51,11.84,14.51,12.08,14.51,12.38z M13.75,11.5
			c-0.06,0-0.11-0.01-0.15-0.01c-1.56,0-3.12,0-4.68,0c-0.15,0-0.17,0.06-0.17,0.19c0,1.37,0,2.74,0,4.11c0,0.16,0.05,0.2,0.2,0.2
			c1.54,0,3.08,0,4.61,0c0.16,0,0.19-0.05,0.19-0.2c-0.01-1.37,0-2.73,0-4.1C13.75,11.63,13.75,11.58,13.75,11.5z M16.24,12.2
			c-0.58,0.36-1.13,0.7-1.67,1.05c-0.03,0.02-0.05,0.09-0.05,0.14c-0.01,0.23,0,0.45-0.01,0.68c0,0.1,0.04,0.15,0.11,0.2
			c0.49,0.3,0.98,0.61,1.47,0.91c0.04,0.03,0.09,0.05,0.15,0.08C16.24,14.23,16.24,13.23,16.24,12.2z"/>
	</g>
	<g>
		<path class="st9" d="M15.94,16.89c-0.11,0.13-0.2,0.28-0.32,0.38c-0.11,0.09-0.21-0.02-0.3-0.1c-1.52-1.24-3.04-2.48-4.57-3.72
			c-1.22-1-2.44-1.99-3.66-2.99c-0.18-0.15-0.19-0.24-0.05-0.43c0.02-0.03,0.04-0.06,0.07-0.08c0.15-0.18,0.21-0.19,0.39-0.04
			c1.12,0.91,2.24,1.82,3.36,2.74c1.58,1.29,3.17,2.58,4.75,3.87c0.07,0.06,0.15,0.11,0.21,0.17
			C15.85,16.74,15.88,16.81,15.94,16.89z"/>
	</g>
</g>
</svg>
