<?xml version="1.0" encoding="utf-8"?>
<!-- Generator: Adobe Illustrator 24.3.0, SVG Export Plug-In . SVG Version: 6.00 Build 0)  -->
<svg version="1.1" xmlns="http://www.w3.org/2000/svg" xmlns:xlink="http://www.w3.org/1999/xlink" x="0px" y="0px"
	 viewBox="0 0 25 25" style="enable-background:new 0 0 25 25;" xml:space="preserve">
<style type="text/css">
	.st0{display:none;}
	.st1{display:inline;fill:#393838;}
	.st2{fill:#FFFFFF;}
	.st3{fill:#006837;}
	.st4{fill:#FFFFFF;stroke:#393838;stroke-width:0.0519;stroke-miterlimit:10;}
	.st5{fill:#FFFFFF;stroke:#393838;stroke-width:0.2282;stroke-miterlimit:10;}
	.st6{fill:#FFFFFF;stroke:#393838;stroke-width:0.8088;stroke-miterlimit:10;}
	.st7{fill:#FFFFFF;stroke:#393838;stroke-width:0.364;stroke-miterlimit:10;}
	.st8{fill:#E85656;stroke:#393838;stroke-width:0.2485;stroke-miterlimit:10;}
	.st9{fill:#E85656;}
	.st10{fill:#E85656;stroke:#393838;stroke-width:0.2282;stroke-miterlimit:10;}
	.st11{fill:#393838;}
	.st12{fill:#FFFFFF;stroke:#393838;stroke-width:0.2485;stroke-miterlimit:10;}
	.st13{fill:#191919;}
	.st14{fill:none;stroke:#E85656;stroke-width:0.5;stroke-miterlimit:10;}
</style>
<g id="Layer_1" class="st0">
	<rect x="-35.05" y="-29.65" class="st1" width="270.4" height="215.61"/>
</g>
<g id="Layer_2">
	<g>
		<path class="st7" d="M12.53,8c0.39,0.06,0.77,0.11,1.14,0.17c0.27,0.05,0.38,0.2,0.39,0.48c0,0.02,0,0.04,0,0.06
			c-0.1,0.44,0.08,0.73,0.5,0.88c0.07,0.02,0.17,0.03,0.23,0c0.16-0.07,0.3-0.17,0.45-0.25c0.22-0.12,0.38-0.1,0.56,0.08
			c0.56,0.56,0.96,1.22,1.18,1.98c0.09,0.29,0.02,0.46-0.24,0.62c-0.01,0.01-0.02,0.01-0.03,0.02c-0.52,0.3-0.52,0.3-0.49,0.9
			c0,0.06,0.06,0.13,0.11,0.16c0.15,0.1,0.31,0.18,0.46,0.28c0.22,0.14,0.28,0.3,0.21,0.54c-0.23,0.79-0.63,1.47-1.22,2.05
			c-0.15,0.15-0.33,0.17-0.51,0.06c-0.16-0.09-0.31-0.19-0.47-0.26c-0.07-0.03-0.17-0.02-0.25,0c-0.43,0.14-0.56,0.43-0.5,0.88
			c0.04,0.33-0.07,0.45-0.4,0.53c-0.76,0.19-1.52,0.19-2.28-0.01c-0.27-0.07-0.37-0.21-0.38-0.49c0-0.13-0.02-0.26,0-0.38
			c0.03-0.21-0.09-0.29-0.23-0.4c-0.28-0.21-0.51-0.17-0.79,0.01c-0.41,0.27-0.51,0.25-0.85-0.12c-0.5-0.54-0.85-1.16-1.06-1.87
			c-0.07-0.25-0.01-0.41,0.21-0.56c0.06-0.04,0.12-0.08,0.19-0.11c0.4-0.24,0.48-0.39,0.39-0.84c-0.01-0.06-0.07-0.12-0.13-0.16
			c-0.15-0.1-0.31-0.18-0.46-0.27c-0.21-0.14-0.28-0.31-0.2-0.55c0.23-0.77,0.62-1.45,1.2-2.01C9.43,9.24,9.58,9.22,9.8,9.33
			c0.03,0.01,0.06,0.03,0.09,0.05c0.33,0.31,0.66,0.27,0.99-0.01c0.06-0.05,0.11-0.13,0.11-0.2c0.02-0.17,0-0.35,0.01-0.52
			c0.01-0.27,0.13-0.43,0.4-0.47C11.77,8.11,12.15,8.06,12.53,8z M15.45,15.08c0.19-0.35,0.38-0.67,0.54-1
			c0.02-0.04-0.02-0.15-0.07-0.18c-0.18-0.12-0.38-0.21-0.56-0.34c-0.06-0.04-0.12-0.14-0.1-0.2c0.09-0.46,0.1-0.92-0.01-1.38
			c-0.03-0.11,0.02-0.17,0.12-0.22c0.19-0.1,0.37-0.2,0.55-0.32c0.04-0.03,0.1-0.11,0.09-0.15c-0.15-0.37-0.33-0.72-0.61-1.02
			c-0.23,0.13-0.44,0.25-0.65,0.37c-0.1,0.06-0.18,0.07-0.28-0.02c-0.34-0.3-0.72-0.53-1.15-0.66c-0.12-0.04-0.15-0.1-0.15-0.22
			c0.01-0.2,0-0.4,0-0.6c0-0.12-0.03-0.2-0.16-0.2c-0.32,0-0.65,0-0.97,0c-0.12,0-0.15,0.07-0.15,0.18c0.01,0.21-0.01,0.41,0,0.62
			c0.01,0.12-0.03,0.18-0.15,0.22c-0.43,0.14-0.81,0.36-1.15,0.66c-0.1,0.09-0.18,0.08-0.28,0.02c-0.18-0.11-0.36-0.2-0.53-0.31
			c-0.1-0.06-0.17-0.05-0.23,0.05c-0.16,0.28-0.32,0.56-0.49,0.84c-0.06,0.1-0.03,0.15,0.07,0.21c0.19,0.1,0.39,0.21,0.57,0.33
			c0.06,0.04,0.11,0.14,0.1,0.19c-0.1,0.46-0.1,0.92,0,1.38c0.01,0.06-0.04,0.16-0.1,0.2c-0.18,0.12-0.37,0.23-0.57,0.33
			c-0.1,0.05-0.13,0.11-0.07,0.2c0.16,0.28,0.32,0.56,0.48,0.84c0.06,0.11,0.14,0.11,0.25,0.04c0.17-0.11,0.35-0.22,0.54-0.3
			c0.07-0.03,0.19-0.03,0.24,0.01c0.35,0.3,0.74,0.52,1.17,0.67c0.12,0.04,0.15,0.1,0.15,0.22c-0.01,0.21,0,0.41,0,0.62
			c0,0.11,0.03,0.18,0.16,0.18c0.32,0,0.65,0.01,0.97-0.01c0.05,0,0.14-0.1,0.14-0.16c0.02-0.2,0.01-0.4,0-0.6
			c-0.01-0.14,0.03-0.22,0.17-0.26c0.42-0.13,0.8-0.36,1.13-0.66c0.09-0.08,0.17-0.08,0.27-0.02C14.95,14.8,15.17,14.93,15.45,15.08
			z"/>
		<path class="st7" d="M10.75,12.68c-0.07-0.92,0.8-1.82,1.82-1.81c0.93,0.02,1.8,0.84,1.76,1.83c-0.04,0.98-0.79,1.75-1.78,1.76
			C11.48,14.48,10.68,13.54,10.75,12.68z M13.43,12.68c0-0.5-0.39-0.9-0.88-0.91c-0.49-0.01-0.9,0.4-0.91,0.89
			c-0.01,0.5,0.39,0.9,0.89,0.91C13.02,13.58,13.42,13.18,13.43,12.68z"/>
	</g>
</g>
</svg>
