<?xml version="1.0" encoding="utf-8"?>
<!-- Generator: Adobe Illustrator 24.3.0, SVG Export Plug-In . SVG Version: 6.00 Build 0)  -->
<svg version="1.1" xmlns="http://www.w3.org/2000/svg" xmlns:xlink="http://www.w3.org/1999/xlink" x="0px" y="0px"
	 viewBox="0 0 25 25" style="enable-background:new 0 0 25 25;" xml:space="preserve">
<style type="text/css">
	.st0{display:none;}
	.st1{display:inline;fill:#393838;}
	.st2{fill:#FFFFFF;}
	.st3{fill:#006837;}
	.st4{fill:#FFFFFF;stroke:#393838;stroke-width:0.0519;stroke-miterlimit:10;}
	.st5{fill:#FFFFFF;stroke:#393838;stroke-width:0.2282;stroke-miterlimit:10;}
	.st6{fill:#FFFFFF;stroke:#393838;stroke-width:0.8088;stroke-miterlimit:10;}
	.st7{fill:#FFFFFF;stroke:#393838;stroke-width:0.364;stroke-miterlimit:10;}
	.st8{fill:#E85656;stroke:#393838;stroke-width:0.2485;stroke-miterlimit:10;}
	.st9{fill:#E85656;}
	.st10{fill:#E85656;stroke:#393838;stroke-width:0.2282;stroke-miterlimit:10;}
	.st11{fill:#393838;}
	.st12{fill:#FFFFFF;stroke:#393838;stroke-width:0.2485;stroke-miterlimit:10;}
	.st13{fill:#191919;}
	.st14{fill:none;stroke:#E85656;stroke-width:0.5;stroke-miterlimit:10;}
</style>
<g id="Layer_1" class="st0">
	<rect x="-169.96" y="-84.22" class="st1" width="270.4" height="215.61"/>
</g>
<g id="Layer_2">
	<g>
		<g>
			<path class="st2" d="M12.34,8.31c0.06,0,0.13,0.02,0.2,0.07c0.05,0.03,0.1,0.08,0.1,0.2c0.01,0.59,0.01,1.17,0.01,1.76l0,0.15
				l0,0.88l0,0.95c0,0.08-0.01,0.26,0.14,0.42c0.07,0.07,0.19,0.15,0.38,0.15c0.02,0,0.08,0,0.1-0.01c0.2-0.03,0.35-0.2,0.35-0.4
				v-0.22l0-0.8l0-2.11c0-0.16,0.07-0.34,0.29-0.34c0.2,0,0.31,0.12,0.31,0.34c0,0.66,0,1.33,0,1.99l0,0.85
				c0,0.05-0.01,0.14,0.02,0.24c0.02,0.07,0.05,0.13,0.11,0.23c0.07,0.13,0.21,0.21,0.36,0.21c0,0,0,0,0.01,0
				c0.15,0,0.29-0.09,0.36-0.22c0.04-0.06,0.13-0.18,0.13-0.34c0-0.18,0-0.36,0-0.55c0-0.25,0-0.51,0.01-0.76
				c0.01-0.12,0.04-0.23,0.08-0.31c0.04-0.07,0.14-0.1,0.21-0.1c0.03,0,0.07,0.01,0.1,0.02c0.13,0.04,0.2,0.13,0.2,0.27l0,0.6
				c0,0.74,0.01,1.51-0.01,2.27c-0.01,0.25-0.06,0.51-0.13,0.78l-0.03,0.15c-0.08,0.37-0.17,0.73-0.26,1.1l-0.11,0.47
				c-0.07,0.28-0.2,0.39-0.5,0.39l-0.12,0l-0.89,0l-0.89,0c-0.5,0-1.01,0-1.52,0c-0.2,0-0.33-0.07-0.45-0.23
				c-0.43-0.59-0.86-1.18-1.29-1.77l-0.9-1.24c-0.07-0.09-0.1-0.19-0.08-0.28c0.01-0.07,0.05-0.13,0.11-0.18
				c0.06-0.05,0.13-0.07,0.19-0.07c0.13,0,0.23,0.11,0.28,0.18c0.11,0.16,0.23,0.31,0.34,0.47l0.15,0.21
				c0.07,0.1,0.21,0.15,0.35,0.15c0.05,0,0.1-0.01,0.14-0.02c0.16-0.05,0.27-0.19,0.28-0.35l0.01-0.06
				c0.01-0.06,0.01-0.12,0.01-0.19l0-1.53l0-2.37c0-0.23,0.1-0.35,0.34-0.35c0,0,0,0,0,0c0.16,0.01,0.27,0.17,0.27,0.39
				c0,0.65,0,1.31,0,1.96l0,0.89c0,0.06-0.01,0.14,0.02,0.24c0.04,0.13,0.13,0.21,0.17,0.25c0.07,0.08,0.17,0.11,0.28,0.11
				c0.11,0,0.23-0.04,0.31-0.12c0.04-0.04,0.13-0.12,0.17-0.26c0.02-0.09,0.02-0.18,0.02-0.27l0-0.9c0-0.89,0-1.78,0-2.67
				c0-0.18,0.06-0.25,0.16-0.31C12.25,8.32,12.3,8.31,12.34,8.31 M12.34,7.91c-0.11,0-0.22,0.03-0.33,0.09
				c-0.26,0.14-0.37,0.37-0.37,0.66c0,1.19,0,2.38,0,3.57c0,0.06,0.01,0.12-0.01,0.17c-0.01,0.03-0.05,0.06-0.08,0.09
				c-0.03-0.03-0.07-0.05-0.08-0.09c-0.01-0.05-0.01-0.1-0.01-0.15c0-0.94,0-1.88,0-2.83c0-0.44-0.28-0.76-0.64-0.79
				c-0.02,0-0.04,0-0.06,0c-0.42,0-0.7,0.29-0.7,0.75c0,1.3,0,2.6,0,3.9c0,0.07-0.01,0.15-0.02,0.22c-0.01,0-0.03,0.01-0.04,0.01
				c-0.16-0.22-0.33-0.44-0.49-0.67c-0.16-0.23-0.38-0.35-0.61-0.35c-0.14,0-0.29,0.05-0.42,0.14c-0.32,0.23-0.38,0.66-0.12,1.02
				c0.73,1,1.46,2,2.19,3.01c0.19,0.27,0.45,0.39,0.77,0.39c0,0,0,0,0.01,0c0.5,0,1.01,0,1.51,0c0.59,0,1.19,0,1.78,0
				c0.04,0,0.08,0,0.12,0c0.48,0,0.78-0.23,0.89-0.7c0.13-0.53,0.26-1.05,0.38-1.58c0.07-0.33,0.16-0.67,0.17-1.01
				c0.02-0.96,0.01-1.92,0.01-2.88c0-0.31-0.18-0.55-0.47-0.65c-0.07-0.02-0.15-0.04-0.23-0.04c-0.22,0-0.43,0.1-0.55,0.29
				c-0.09,0.14-0.13,0.33-0.14,0.5c-0.02,0.44,0,0.88-0.01,1.32c0,0.06-0.06,0.12-0.09,0.17c-0.03-0.06-0.06-0.11-0.08-0.17
				c-0.01-0.04,0-0.09,0-0.13c0-0.94,0-1.88,0-2.83c0-0.44-0.3-0.74-0.71-0.74c0,0-0.01,0-0.01,0c-0.39,0-0.68,0.31-0.68,0.74
				c0,0.97,0,1.94,0,2.9c0,0.07,0,0.15,0,0.22c-0.02,0-0.03,0-0.05,0c-0.14,0-0.11-0.11-0.11-0.19c0-0.6,0-1.21,0-1.81
				c0-0.64,0-1.27-0.01-1.91c0-0.22-0.09-0.41-0.29-0.53C12.62,7.96,12.48,7.91,12.34,7.91L12.34,7.91z"/>
		</g>
	</g>
</g>
</svg>
