<?xml version="1.0" encoding="utf-8"?>
<!-- Generator: Adobe Illustrator 24.3.0, SVG Export Plug-In . SVG Version: 6.00 Build 0)  -->
<svg version="1.1" xmlns="http://www.w3.org/2000/svg" xmlns:xlink="http://www.w3.org/1999/xlink" x="0px" y="0px"
	 viewBox="0 0 25 25" style="enable-background:new 0 0 25 25;" xml:space="preserve">
<style type="text/css">
	.st0{display:none;}
	.st1{display:inline;fill:#393838;}
	.st2{fill:#FFFFFF;}
	.st3{fill:#006837;}
	.st4{fill:#FFFFFF;stroke:#393838;stroke-width:0.0519;stroke-miterlimit:10;}
	.st5{fill:#FFFFFF;stroke:#393838;stroke-width:0.2282;stroke-miterlimit:10;}
	.st6{fill:#FFFFFF;stroke:#393838;stroke-width:0.8088;stroke-miterlimit:10;}
	.st7{fill:#FFFFFF;stroke:#393838;stroke-width:0.364;stroke-miterlimit:10;}
	.st8{fill:#E85656;stroke:#393838;stroke-width:0.2485;stroke-miterlimit:10;}
	.st9{fill:#E85656;}
	.st10{fill:#E85656;stroke:#393838;stroke-width:0.2282;stroke-miterlimit:10;}
	.st11{fill:#393838;}
	.st12{fill:#FFFFFF;stroke:#393838;stroke-width:0.2485;stroke-miterlimit:10;}
	.st13{fill:#191919;}
	.st14{fill:none;stroke:#E85656;stroke-width:0.5;stroke-miterlimit:10;}
</style>
<g id="Layer_1" class="st0">
	<rect x="-240.72" y="-74.65" class="st1" width="270.4" height="215.61"/>
</g>
<g id="Layer_2">
	<g>
		<path class="st4" d="M12.49,16.63c-0.91,0-1.83,0.01-2.74,0c-0.41,0-0.79-0.32-0.83-0.73c-0.05-0.53-0.08-1.06,0.06-1.59
			c0.23-0.86,0.91-1.44,1.79-1.48c0.38-0.02,0.76,0.07,1.14,0.13c0.46,0.08,0.91,0.08,1.36-0.05c0.56-0.16,1.12-0.18,1.66,0.08
			c0.74,0.36,1.11,0.99,1.17,1.8c0.02,0.31,0.01,0.63,0,0.94c-0.01,0.48-0.39,0.88-0.87,0.88C14.31,16.64,13.4,16.63,12.49,16.63z
			 M12.49,16.03c0.88,0,1.76,0,2.64,0c0.27,0,0.37-0.1,0.37-0.37c0-0.23,0-0.47,0-0.7c0-1.09-0.83-1.74-1.9-1.49
			c-0.51,0.12-1.03,0.23-1.56,0.13c-0.23-0.04-0.45-0.1-0.68-0.15c-1.02-0.23-1.85,0.43-1.85,1.47c0,0.24,0,0.48,0,0.72
			c0,0.32,0.07,0.39,0.4,0.39C10.77,16.03,11.63,16.03,12.49,16.03z"/>
		<path class="st4" d="M12.49,12.43c-1.16,0-2.09-0.94-2.09-2.1c0-1.15,0.95-2.1,2.1-2.09c1.15,0,2.11,0.95,2.11,2.1
			C14.6,11.49,13.65,12.43,12.49,12.43z M13.99,10.33c0-0.84-0.65-1.49-1.49-1.49c-0.84,0-1.5,0.67-1.5,1.52
			c0,0.83,0.76,1.51,1.54,1.48C13.34,11.81,13.99,11.16,13.99,10.33z"/>
	</g>
</g>
</svg>
