<?xml version="1.0" encoding="utf-8"?>
<!-- Generator: Adobe Illustrator 24.3.0, SVG Export Plug-In . SVG Version: 6.00 Build 0)  -->
<svg version="1.1" xmlns="http://www.w3.org/2000/svg" xmlns:xlink="http://www.w3.org/1999/xlink" x="0px" y="0px"
	 viewBox="0 0 25 25" style="enable-background:new 0 0 25 25;" xml:space="preserve">
<style type="text/css">
	.st0{display:none;}
	.st1{display:inline;fill:#393838;}
	.st2{fill:#FFFFFF;}
	.st3{fill:#006837;}
	.st4{fill:#FFFFFF;stroke:#393838;stroke-width:0.0519;stroke-miterlimit:10;}
	.st5{fill:#FFFFFF;stroke:#393838;stroke-width:0.2282;stroke-miterlimit:10;}
	.st6{fill:#FFFFFF;stroke:#393838;stroke-width:0.8088;stroke-miterlimit:10;}
	.st7{fill:#FFFFFF;stroke:#393838;stroke-width:0.364;stroke-miterlimit:10;}
	.st8{fill:#E85656;stroke:#393838;stroke-width:0.2485;stroke-miterlimit:10;}
	.st9{fill:#E85656;}
	.st10{fill:#E85656;stroke:#393838;stroke-width:0.2282;stroke-miterlimit:10;}
	.st11{fill:#393838;}
	.st12{fill:#FFFFFF;stroke:#393838;stroke-width:0.2485;stroke-miterlimit:10;}
	.st13{fill:#191919;}
	.st14{fill:none;stroke:#E85656;stroke-width:0.5;stroke-miterlimit:10;}
</style>
<g id="Layer_1" class="st0">
	<rect x="-80.05" y="-29.65" class="st1" width="270.4" height="215.61"/>
</g>
<g id="Layer_2">
	<g>
		<path class="st12" d="M12.04,16.48c0.02-0.03,0.03-0.03,0.03-0.04c0-0.16,0.05-0.34-0.01-0.46c-0.05-0.09-0.25-0.12-0.38-0.16
			c-1.24-0.37-2.16-1.59-2.18-2.91c0-0.25,0-0.5,0-0.74c0-0.21,0.11-0.31,0.31-0.31c0.06,0,0.12,0,0.18,0
			c0.24,0,0.32,0.09,0.33,0.33c0.01,0.36,0,0.71,0.04,1.07c0.09,0.8,0.83,1.71,1.85,1.85c1.24,0.17,2.48-0.85,2.46-2.17
			c0-0.26,0-0.52,0-0.78c0-0.2,0.1-0.29,0.3-0.3c0.01,0,0.01,0,0.02,0c0.45-0.01,0.5,0.04,0.5,0.49c0,0.53,0.03,1.07-0.17,1.58
			c-0.4,1.06-1.15,1.72-2.26,1.95c-0.15,0.03-0.17,0.09-0.17,0.22c0,0.38,0,0.38,0.38,0.38c0.17,0,0.34,0,0.51,0
			c0.24,0,0.34,0.1,0.35,0.34c0,0.07,0,0.15,0,0.22c-0.01,0.16-0.1,0.26-0.26,0.26c-0.91,0-1.81,0-2.72,0
			c-0.17,0-0.26-0.09-0.28-0.25c-0.01-0.08-0.01-0.16-0.01-0.24c0.01-0.23,0.11-0.33,0.34-0.33C11.48,16.47,11.77,16.48,12.04,16.48
			z"/>
		<path class="st12" d="M14.13,11.59c0,0.47,0,0.93,0,1.4c-0.01,0.8-0.61,1.46-1.44,1.58c-0.77,0.11-1.55-0.4-1.76-1.15
			c-0.04-0.16-0.07-0.33-0.07-0.5c-0.01-0.89-0.01-1.78,0-2.67c0.01-0.76,0.47-1.38,1.16-1.6c1.04-0.32,2.11,0.47,2.11,1.56
			C14.13,10.67,14.13,11.13,14.13,11.59z M13.31,11.59c0-0.45,0-0.91,0-1.36c0-0.45-0.33-0.8-0.77-0.81
			c-0.47-0.01-0.84,0.31-0.85,0.77c-0.01,0.93-0.01,1.86,0,2.79c0.01,0.46,0.38,0.8,0.83,0.79c0.45-0.01,0.8-0.37,0.8-0.83
			C13.31,12.48,13.31,12.04,13.31,11.59z"/>
	</g>
</g>
</svg>
